<svg width="512" xmlns="http://www.w3.org/2000/svg" height="512" id="screenshot-27a72f9a-8d45-80ab-8006-90ff3d3fd91c" viewBox="0 0 512 512" xmlns:xlink="http://www.w3.org/1999/xlink" fill="none" version="1.1"><g id="shape-27a72f9a-8d45-80ab-8006-90ff3d3fd91c"><defs><clipPath id="frame-clip-27a72f9a-8d45-80ab-8006-90ff3d3fd91c-render-1" class="frame-clip frame-clip-def"><rect rx="143" ry="143" x="0" y="0" width="512" height="512" transform="matrix(1.000000, 0.000000, 0.000000, 1.000000, 0.000000, 0.000000)"/></clipPath></defs><g class="frame-container-wrapper"><g class="frame-container-blur"><defs><filter id="filter-shadow-render-1" x="0" y="0" width="1" height="1" filterUnits="objectBoundingBox" color-interpolation-filters="sRGB"><feFlood flood-opacity="0" result="BackgroundImageFix"/><feBlend mode="normal" in="SourceGraphic" in2="BackgroundImageFix" result="shape"/><feColorMatrix in="SourceAlpha" type="matrix" values="0 0 0 0 0 0 0 0 0 0 0 0 0 0 0 0 0 0 127 0" result="hardAlpha"/><feMorphology radius="9" operator="erode" in="SourceAlpha" result="filter_724cb4d7-5bba-800d-8006-80136e9344b5"/><feOffset dx="-9" dy="4"/><feGaussianBlur stdDeviation="2"/><feComposite in2="hardAlpha" operator="arithmetic" k2="-1" k3="1"/><feColorMatrix type="matrix" values="0 0 0 0 1 0 0 0 0 1 0 0 0 0 1 0 0 0 0.2 0"/><feBlend mode="normal" in2="shape" result="filter_724cb4d7-5bba-800d-8006-80136e9344b5"/></filter></defs><g class="frame-container-shadows" filter="url(#filter-shadow-render-1)"><g clip-path="url(#frame-clip-27a72f9a-8d45-80ab-8006-90ff3d3fd91c-render-1)" fill="none"><g class="fills" id="fills-27a72f9a-8d45-80ab-8006-90ff3d3fd91c"><rect rx="143" ry="143" x="0" y="0" width="512" height="512" transform="matrix(1.000000, 0.000000, 0.000000, 1.000000, 0.000000, 0.000000)" class="frame-background"/></g><g class="frame-children"><g id="shape-27a72f9a-8d45-80ab-8006-90ff49445a6f" rx="0" ry="0"><g id="shape-27a72f9a-8d45-80ab-8006-90ff3d403ff3" filter="url(#filter-render-3)" rx="0" ry="0"><defs><filter id="filter-render-3" x="0" y="0" width="1" height="1" filterUnits="objectBoundingBox" color-interpolation-filters="sRGB"><feFlood flood-opacity="0" result="BackgroundImageFix"/><feBlend mode="normal" in="SourceGraphic" in2="BackgroundImageFix" result="shape"/><feColorMatrix in="SourceAlpha" type="matrix" values="0 0 0 0 0 0 0 0 0 0 0 0 0 0 0 0 0 0 127 0" result="hardAlpha"/><feMorphology radius="4" operator="erode" in="SourceAlpha" result="filter_724cb4d7-5bba-800d-8006-800fd7d17615"/><feOffset dx="-4" dy="4"/><feGaussianBlur stdDeviation="3.5"/><feComposite in2="hardAlpha" operator="arithmetic" k2="-1" k3="1"/><feColorMatrix type="matrix" values="0 0 0 0 1 0 0 0 0 1 0 0 0 0 1 0 0 0 0.2 0"/><feBlend mode="normal" in2="shape" result="filter_724cb4d7-5bba-800d-8006-800fd7d17615"/></filter><filter id="filter-shadow-render-3" x="0" y="0" width="1" height="1" filterUnits="objectBoundingBox" color-interpolation-filters="sRGB"><feFlood flood-opacity="0" result="BackgroundImageFix"/><feBlend mode="normal" in="SourceGraphic" in2="BackgroundImageFix" result="shape"/><feColorMatrix in="SourceAlpha" type="matrix" values="0 0 0 0 0 0 0 0 0 0 0 0 0 0 0 0 0 0 127 0" result="hardAlpha"/><feMorphology radius="4" operator="erode" in="SourceAlpha" result="filter_724cb4d7-5bba-800d-8006-800fd7d17615"/><feOffset dx="-4" dy="4"/><feGaussianBlur stdDeviation="3.5"/><feComposite in2="hardAlpha" operator="arithmetic" k2="-1" k3="1"/><feColorMatrix type="matrix" values="0 0 0 0 1 0 0 0 0 1 0 0 0 0 1 0 0 0 0.2 0"/><feBlend mode="normal" in2="shape" result="filter_724cb4d7-5bba-800d-8006-800fd7d17615"/></filter></defs><g id="shape-27a72f9a-8d45-80ab-8006-90ff3d403ff5"><defs><linearGradient id="fill-color-gradient-render-4-0" x1="0.5" y1="0" x2="0.5" y2="1" gradientTransform=""><stop offset="0" stop-color="#56b3ff" stop-opacity="1"/><stop offset="1" stop-color="#8d5cff" stop-opacity="1"/></linearGradient><pattern patternUnits="userSpaceOnUse" x="144.68034145272827" y="34.08261551066127" width="231.1736618643672" height="357.9999645415212" patternTransform="matrix(0.500000, 0.866025, -0.866025, 0.500000, 314.668529, -118.856684)" id="fill-0-render-4"><g><rect width="231.1736618643672" height="357.9999645415212" style="fill: url(&quot;#fill-color-gradient-render-4-0&quot;);"/></g></pattern></defs><g class="fills" id="fills-27a72f9a-8d45-80ab-8006-90ff3d403ff5"><path d="M355.316,33.203C354.431,32.947,353.530,32.743,352.620,32.591C350.549,32.244,348.426,32.168,346.311,32.378C345.636,32.445,344.961,32.541,344.289,32.666C342.370,33.025,340.472,33.625,338.636,34.477C337.994,34.776,337.359,35.106,336.734,35.467L68.169,190.523C56.737,197.123,52.814,211.763,59.414,223.195L59.414,223.195C66.014,234.627,80.654,238.550,92.087,231.949L324.753,97.619L324.623,267.949C324.613,281.167,335.336,291.890,348.554,291.880L348.554,291.880C361.773,291.870,372.512,281.131,372.522,267.913L372.684,56.225C372.688,50.726,370.834,45.659,367.717,41.617C367.263,41.028,366.782,40.461,366.276,39.918C365.624,39.217,364.930,38.556,364.199,37.938C363.596,37.428,362.967,36.947,362.315,36.499C361.762,36.117,361.191,35.759,360.605,35.424C360.019,35.090,359.418,34.779,358.802,34.494C358.186,34.209,357.556,33.949,356.914,33.717C356.271,33.484,355.615,33.278,354.949,33.100M344.220,32.726C344.905,32.594,345.601,32.491,346.305,32.419" fill="url(#fill-0-render-4)"/></g></g><g id="shape-27a72f9a-8d45-80ab-8006-90ff3d403ff6"><defs><filter id="filter-render-5" x="-0.709828099728101" y="-0.8572873518988027" width="3.1294842991843033" height="2.5654812512934657" filterUnits="objectBoundingBox" color-interpolation-filters="sRGB"><feFlood flood-opacity="0" result="BackgroundImageFix"/><feColorMatrix in="SourceAlpha" type="matrix" values="0 0 0 0 0 0 0 0 0 0 0 0 0 0 0 0 0 0 127 0"/><feMorphology radius="8" operator="erode" in="SourceAlpha" result="filter_724cb4d7-5bba-800d-8006-800f728228ac"/><feOffset dx="14" dy="-8"/><feGaussianBlur stdDeviation="6.5"/><feColorMatrix type="matrix" values="0 0 0 0 0 0 0 0 0 0 0 0 0 0 0 0 0 0 0.2 0"/><feBlend mode="normal" in2="BackgroundImageFix" result="filter_724cb4d7-5bba-800d-8006-800f728228ac"/><feBlend mode="normal" in="SourceGraphic" in2="filter_724cb4d7-5bba-800d-8006-800f728228ac" result="shape"/></filter><filter id="filter-shadow-render-5" x="-0.709828099728101" y="-0.8572873518988027" width="3.1294842991843033" height="2.5654812512934657" filterUnits="objectBoundingBox" color-interpolation-filters="sRGB"><feFlood flood-opacity="0" result="BackgroundImageFix"/><feColorMatrix in="SourceAlpha" type="matrix" values="0 0 0 0 0 0 0 0 0 0 0 0 0 0 0 0 0 0 127 0"/><feMorphology radius="8" operator="erode" in="SourceAlpha" result="filter_724cb4d7-5bba-800d-8006-800f728228ac"/><feOffset dx="14" dy="-8"/><feGaussianBlur stdDeviation="6.5"/><feColorMatrix type="matrix" values="0 0 0 0 0 0 0 0 0 0 0 0 0 0 0 0 0 0 0.2 0"/><feBlend mode="normal" in2="BackgroundImageFix" result="filter_724cb4d7-5bba-800d-8006-800f728228ac"/><feBlend mode="normal" in="SourceGraphic" in2="filter_724cb4d7-5bba-800d-8006-800f728228ac" result="shape"/></filter><linearGradient id="fill-color-gradient-render-5-0" x1="0.5149547774552764" y1="-0.4273828411516956" x2="0.3847445104382125" y2="3.14472286274983" gradientTransform=""><stop offset="0.22" stop-color="#6699ff" stop-opacity="1"/><stop offset="0.39" stop-color="#7784fa" stop-opacity="0"/><stop offset="1" stop-color="#b639ec" stop-opacity="0"/></linearGradient><pattern patternUnits="userSpaceOnUse" x="299.9203928011475" y="227.37898523887623" width="47.89892089792397" height="53.657621214304356" id="fill-0-render-5"><g><rect width="47.89892089792397" height="53.657621214304356" style="fill: url(&quot;#fill-color-gradient-render-5-0&quot;);"/></g></pattern></defs><g class="fills" id="fills-27a72f9a-8d45-80ab-8006-90ff3d403ff6"><rect width="47.89892089792397" height="53.657621214304356" x="299.9203928011475" transform="matrix(0.500659, -0.865644, -0.866406, -0.499340, 381.968592, 661.499950)" ry="23.949460448961986" fill="url(#fill-0-render-5)" rx="23.949460448961986" filter="url(#filter-render-5)" y="227.37898523887623"/></g></g><g id="shape-27a72f9a-8d45-80ab-8006-90ff3d403ff7"><defs><linearGradient id="fill-color-gradient-render-6-0" x1="0.7055963646002493" y1="0.13320007182917684" x2="0.6297405719072822" y2="0.9453093495863962" gradientTransform=""><stop offset="0.22" stop-color="#6699ff" stop-opacity="1"/><stop offset="1" stop-color="#c6a9ff" stop-opacity="0"/></linearGradient><pattern patternUnits="userSpaceOnUse" x="232.5315497144668" y="86.25190840650947" width="47.8989208979242" height="258.86176720954967" id="fill-0-render-6"><g><rect width="47.8989208979242" height="258.86176720954967" style="fill: url(&quot;#fill-color-gradient-render-6-0&quot;);"/></g></pattern></defs><g class="fills" id="fills-27a72f9a-8d45-80ab-8006-90ff3d403ff7"><rect rx="23.9494604489621" ry="23.9494604489621" x="232.5315497144668" y="86.25190840650947" transform="matrix(0.500659, -0.865644, -0.866406, -0.499340, 314.940303, 545.403111)" width="47.8989208979242" height="258.86176720954967" fill="url(#fill-0-render-6)"/></g></g><g id="shape-27a72f9a-8d45-80ab-8006-90ff3d403ff8"><defs><linearGradient id="fill-color-gradient-render-7-0" x1="0.5" y1="0" x2="0.5" y2="1" gradientTransform=""><stop offset="0" stop-color="#56b3ff" stop-opacity="1"/><stop offset="1" stop-color="#8d5cff" stop-opacity="1"/></linearGradient><pattern patternUnits="userSpaceOnUse" x="178.71855734376868" y="-24.87330381162485" width="94.93017961673445" height="357.94764582023026" patternTransform="matrix(0.500000, 0.866025, -0.866025, 0.500000, 246.546788, -118.830525)" id="fill-0-render-7"><g><rect width="94.93017961673445" height="357.94764582023026" style="fill: url(&quot;#fill-color-gradient-render-7-0&quot;);"/></g></pattern></defs><g class="fills" id="fills-27a72f9a-8d45-80ab-8006-90ff3d403ff8"><path d="M372.602,56.796C372.626,55.920,372.601,55.040,372.528,54.161C372.433,53.028,372.256,51.895,371.996,50.773C371.769,49.793,371.477,48.821,371.120,47.861C370.877,47.206,370.603,46.557,370.297,45.916C370.025,45.345,369.728,44.779,369.406,44.221L369.406,44.221C369.134,43.750,368.848,43.292,368.550,42.847C368.052,42.104,367.519,41.398,366.954,40.728C366.332,39.992,365.672,39.301,364.977,38.656C364.485,38.199,363.976,37.765,363.452,37.354C362.711,36.774,361.940,36.242,361.143,35.757C360.462,35.343,359.763,34.965,359.048,34.622C358.348,34.287,357.634,33.987,356.907,33.721C353.903,32.625,350.691,32.131,347.470,32.292C346.456,32.342,345.442,32.458,344.433,32.640C343.689,32.774,342.949,32.945,342.213,33.152C341.548,33.339,340.888,33.557,340.234,33.805C339.160,34.212,338.103,34.701,337.071,35.276C336.958,35.338,336.846,35.402,336.734,35.467L68.169,190.523C56.737,197.123,52.814,211.763,59.414,223.195L59.414,223.195C66.014,234.627,80.654,238.550,92.087,231.949L324.672,97.666L324.662,110.606C324.652,123.824,335.375,134.547,348.593,134.537L348.593,134.537C361.811,134.527,372.551,123.787,372.561,110.569L372.602,56.796ZM337.065,35.304C338.079,34.741,339.137,34.248,340.233,33.834C340.873,33.593,341.525,33.378,342.189,33.191C342.923,32.984,343.672,32.812,344.433,32.675C345.416,32.499,346.421,32.382,347.441,32.329M370.278,45.917C370.571,46.528,370.838,47.154,371.078,47.793C371.439,48.751,371.739,49.738,371.976,50.750C372.235,51.859,372.417,52.998,372.516,54.161" fill="url(#fill-0-render-7)"/></g></g></g><g id="shape-27a72f9a-8d45-80ab-8006-90ff3d403ff4" filter="url(#filter-render-8)" rx="0" ry="0"><defs><filter id="filter-render-8" x="0" y="0" width="1" height="1" filterUnits="objectBoundingBox" color-interpolation-filters="sRGB"><feFlood flood-opacity="0" result="BackgroundImageFix"/><feBlend mode="normal" in="SourceGraphic" in2="BackgroundImageFix" result="shape"/><feColorMatrix in="SourceAlpha" type="matrix" values="0 0 0 0 0 0 0 0 0 0 0 0 0 0 0 0 0 0 127 0" result="hardAlpha"/><feMorphology radius="4" operator="erode" in="SourceAlpha" result="filter_724cb4d7-5bba-800d-8006-800fd7d17615"/><feOffset dx="-4" dy="4"/><feGaussianBlur stdDeviation="3.5"/><feComposite in2="hardAlpha" operator="arithmetic" k2="-1" k3="1"/><feColorMatrix type="matrix" values="0 0 0 0 1 0 0 0 0 1 0 0 0 0 1 0 0 0 0.2 0"/><feBlend mode="normal" in2="shape" result="filter_724cb4d7-5bba-800d-8006-800fd7d17615"/></filter><filter id="filter-shadow-render-8" x="0" y="0" width="1" height="1" filterUnits="objectBoundingBox" color-interpolation-filters="sRGB"><feFlood flood-opacity="0" result="BackgroundImageFix"/><feBlend mode="normal" in="SourceGraphic" in2="BackgroundImageFix" result="shape"/><feColorMatrix in="SourceAlpha" type="matrix" values="0 0 0 0 0 0 0 0 0 0 0 0 0 0 0 0 0 0 127 0" result="hardAlpha"/><feMorphology radius="4" operator="erode" in="SourceAlpha" result="filter_724cb4d7-5bba-800d-8006-800fd7d17615"/><feOffset dx="-4" dy="4"/><feGaussianBlur stdDeviation="3.5"/><feComposite in2="hardAlpha" operator="arithmetic" k2="-1" k3="1"/><feColorMatrix type="matrix" values="0 0 0 0 1 0 0 0 0 1 0 0 0 0 1 0 0 0 0.2 0"/><feBlend mode="normal" in2="shape" result="filter_724cb4d7-5bba-800d-8006-800fd7d17615"/></filter></defs><g id="shape-27a72f9a-8d45-80ab-8006-90ff3d403ffd"><defs><linearGradient id="fill-color-gradient-render-9-0" x1="0.5" y1="0" x2="0.5" y2="1" gradientTransform=""><stop offset="0" stop-color="#56b3ff" stop-opacity="1"/><stop offset="1" stop-color="#8d5cff" stop-opacity="1"/></linearGradient><pattern patternUnits="userSpaceOnUse" x="137.1038805223252" y="118.95972932069134" width="231.1736618643747" height="357.9999645415232" patternTransform="matrix(0.500000, 0.866025, 0.866025, -0.500000, -131.695324, 228.102992)" id="fill-0-render-9"><g><rect width="231.1736618643747" height="357.9999645415232" style="fill: url(&quot;#fill-color-gradient-render-9-0&quot;);"/></g></pattern></defs><g class="fills" id="fills-27a72f9a-8d45-80ab-8006-90ff3d403ffd"><path d="M157.641,477.840C158.359,478.046,159.085,478.220,159.819,478.359C162.055,478.783,164.355,478.891,166.647,478.664C167.322,478.597,167.997,478.501,168.669,478.376C170.588,478.017,172.486,477.417,174.321,476.565C174.964,476.266,175.599,475.937,176.224,475.576L444.789,320.520C456.221,313.919,460.144,299.279,453.544,287.847L453.544,287.847C446.943,276.415,432.303,272.493,420.871,279.093L188.205,413.423L188.335,243.093C188.345,229.875,177.621,219.152,164.403,219.162L164.403,219.162C151.185,219.172,140.446,229.912,140.436,243.130L140.274,454.818C140.270,460.316,142.123,465.383,145.241,469.425C145.695,470.014,146.176,470.581,146.682,471.125C147.334,471.825,148.028,472.486,148.759,473.105C149.362,473.614,149.991,474.095,150.642,474.544C151.196,474.925,151.767,475.284,152.353,475.618C152.939,475.953,153.540,476.263,154.156,476.548C154.772,476.833,155.402,477.093,156.044,477.326M168.738,478.316C168.053,478.448,167.357,478.551,166.653,478.623" fill="url(#fill-0-render-9)"/></g></g><g id="shape-27a72f9a-8d45-80ab-8006-90ff3d403ffe"><defs><filter id="filter-render-10" x="-0.7098280997280977" y="-0.8572873518987981" width="3.129484299184293" height="2.5654812512934577" filterUnits="objectBoundingBox" color-interpolation-filters="sRGB"><feFlood flood-opacity="0" result="BackgroundImageFix"/><feColorMatrix in="SourceAlpha" type="matrix" values="0 0 0 0 0 0 0 0 0 0 0 0 0 0 0 0 0 0 127 0"/><feMorphology radius="8" operator="erode" in="SourceAlpha" result="filter_724cb4d7-5bba-800d-8006-800f728228ac"/><feOffset dx="14" dy="-8"/><feGaussianBlur stdDeviation="6.5"/><feColorMatrix type="matrix" values="0 0 0 0 0 0 0 0 0 0 0 0 0 0 0 0 0 0 0.2 0"/><feBlend mode="normal" in2="BackgroundImageFix" result="filter_724cb4d7-5bba-800d-8006-800f728228ac"/><feBlend mode="normal" in="SourceGraphic" in2="filter_724cb4d7-5bba-800d-8006-800f728228ac" result="shape"/></filter><filter id="filter-shadow-render-10" x="-0.7098280997280977" y="-0.8572873518987981" width="3.129484299184293" height="2.5654812512934577" filterUnits="objectBoundingBox" color-interpolation-filters="sRGB"><feFlood flood-opacity="0" result="BackgroundImageFix"/><feColorMatrix in="SourceAlpha" type="matrix" values="0 0 0 0 0 0 0 0 0 0 0 0 0 0 0 0 0 0 127 0"/><feMorphology radius="8" operator="erode" in="SourceAlpha" result="filter_724cb4d7-5bba-800d-8006-800f728228ac"/><feOffset dx="14" dy="-8"/><feGaussianBlur stdDeviation="6.5"/><feColorMatrix type="matrix" values="0 0 0 0 0 0 0 0 0 0 0 0 0 0 0 0 0 0 0.2 0"/><feBlend mode="normal" in2="BackgroundImageFix" result="filter_724cb4d7-5bba-800d-8006-800f728228ac"/><feBlend mode="normal" in="SourceGraphic" in2="filter_724cb4d7-5bba-800d-8006-800f728228ac" result="shape"/></filter><linearGradient id="fill-color-gradient-render-10-0" x1="0.5149547774552764" y1="-0.4273828411516956" x2="0.3847445104382125" y2="3.14472286274983" gradientTransform=""><stop offset="0.22" stop-color="#6699ff" stop-opacity="1"/><stop offset="0.39" stop-color="#7784fa" stop-opacity="0"/><stop offset="1" stop-color="#b639ec" stop-opacity="0"/></linearGradient><pattern patternUnits="userSpaceOnUse" x="165.13857014034966" y="230.00570291969137" width="47.8989208979242" height="53.65762121430464" id="fill-0-render-10"><g><rect width="47.8989208979242" height="53.65762121430464" style="fill: url(&quot;#fill-color-gradient-render-10-0&quot;);"/></g></pattern></defs><g class="fills" id="fills-27a72f9a-8d45-80ab-8006-90ff3d403ffe"><rect width="47.8989208979242" height="53.65762121430464" x="165.13857014034966" transform="matrix(-0.500659, 0.865644, 0.866406, 0.499340, 61.233697, -35.096142)" ry="23.9494604489621" fill="url(#fill-0-render-10)" rx="23.9494604489621" filter="url(#filter-render-10)" y="230.00570291969137"/></g></g><g id="shape-27a72f9a-8d45-80ab-8006-90ff3d403fff"><defs><linearGradient id="fill-color-gradient-render-11-0" x1="0.7055963646002493" y1="0.13320007182917684" x2="0.6297405719072822" y2="0.9453093495863962" gradientTransform=""><stop offset="0.22" stop-color="#6699ff" stop-opacity="1"/><stop offset="1" stop-color="#c6a9ff" stop-opacity="0"/></linearGradient><pattern patternUnits="userSpaceOnUse" x="232.52741322703037" y="165.92863375681281" width="47.89892089792397" height="258.8617672095496" id="fill-0-render-11"><g><rect width="47.89892089792397" height="258.8617672095496" style="fill: url(&quot;#fill-color-gradient-render-11-0&quot;);"/></g></pattern></defs><g class="fills" id="fills-27a72f9a-8d45-80ab-8006-90ff3d403fff"><rect rx="23.949460448961986" ry="23.949460448961986" x="232.52741322703037" y="165.92863375681281" transform="matrix(-0.500659, 0.865644, 0.866406, 0.499340, 128.983094, -74.142973)" width="47.89892089792397" height="258.8617672095496" fill="url(#fill-0-render-11)"/></g></g><g id="shape-27a72f9a-8d45-80ab-8006-90ff3d400000"><defs><linearGradient id="fill-color-gradient-render-12-0" x1="0.5" y1="0" x2="0.5" y2="1" gradientTransform=""><stop offset="0" stop-color="#56b3ff" stop-opacity="1"/><stop offset="1" stop-color="#8d5cff" stop-opacity="1"/></linearGradient><pattern patternUnits="userSpaceOnUse" x="239.30955111002254" y="177.9682007472045" width="94.92964064193416" height="357.94764582023015" patternTransform="matrix(0.500000, 0.866025, 0.866025, -0.500000, -165.733674, 287.059145)" id="fill-0-render-12"><g><rect width="94.92964064193416" height="357.94764582023015" style="fill: url(&quot;#fill-color-gradient-render-12-0&quot;);"/></g></pattern></defs><g class="fills" id="fills-27a72f9a-8d45-80ab-8006-90ff3d400000"><path d="M140.356,454.247C140.351,454.437,140.348,454.628,140.347,454.819C140.345,455.505,140.373,456.193,140.430,456.881C140.525,458.014,140.702,459.147,140.962,460.270C141.189,461.249,141.481,462.222,141.837,463.181C142.081,463.836,142.355,464.485,142.661,465.126C142.933,465.698,143.230,466.263,143.552,466.821L143.552,466.821C143.824,467.292,144.110,467.750,144.408,468.196C144.906,468.938,145.439,469.645,146.004,470.314C146.626,471.050,147.286,471.741,147.981,472.386C148.473,472.844,148.982,473.278,149.506,473.688C150.247,474.268,151.018,474.801,151.815,475.285C152.496,475.699,153.195,476.078,153.910,476.420C154.610,476.755,155.324,477.056,156.051,477.321C159.054,478.417,162.267,478.912,165.488,478.751C166.501,478.700,167.516,478.584,168.525,478.402C169.269,478.268,170.009,478.098,170.745,477.890C171.409,477.703,172.070,477.486,172.724,477.238C173.798,476.831,174.855,476.341,175.887,475.767C176.000,475.704,176.112,475.640,176.224,475.576L444.789,320.520C456.221,313.919,460.144,299.279,453.544,287.847L453.544,287.847C446.943,276.415,432.303,272.493,420.871,279.093L188.286,413.376L188.296,400.437C188.306,387.219,177.583,376.495,164.365,376.505L164.365,376.505C151.147,376.515,140.407,387.255,140.397,400.473L140.356,454.247ZM175.892,475.738C174.879,476.302,173.821,476.794,172.724,477.208C172.085,477.449,171.433,477.664,170.769,477.851C170.035,478.058,169.286,478.230,168.525,478.367C167.542,478.544,166.537,478.660,165.516,478.713M142.679,465.126C142.387,464.514,142.120,463.888,141.880,463.249C141.519,462.291,141.219,461.304,140.982,460.292C140.723,459.183,140.541,458.044,140.442,456.881C140.385,456.213,140.356,455.536,140.356,454.853" fill="url(#fill-0-render-12)"/></g></g></g></g></g></g></g></g></g></g></svg>